<?xml version="1.0" encoding="UTF-8" standalone="no"?>
<svg
   xmlns:dc="http://purl.org/dc/elements/1.1/"
   xmlns:cc="http://creativecommons.org/ns#"
   xmlns:rdf="http://www.w3.org/1999/02/22-rdf-syntax-ns#"
   xmlns:svg="http://www.w3.org/2000/svg"
   xmlns="http://www.w3.org/2000/svg"
   xmlns:sodipodi="http://sodipodi.sourceforge.net/DTD/sodipodi-0.dtd"
   xmlns:inkscape="http://www.inkscape.org/namespaces/inkscape"
   viewBox="0 0 796.27338 790.13028"
   id="svg2"
   version="1.1"
   inkscape:version="0.48.3.1 r9886"
   width="100%"
   height="100%"
   sodipodi:docname="avatar.svg"
   inkscape:export-filename="/home/caiosba/Presidência/confjuvapp/www/img/avatar.png"
   inkscape:export-xdpi="33.943768"
   inkscape:export-ydpi="33.943768">
  <defs
     id="defs4812" />
  <sodipodi:namedview
     pagecolor="#ffffff"
     bordercolor="#666666"
     borderopacity="1"
     objecttolerance="10"
     gridtolerance="10"
     guidetolerance="10"
     inkscape:pageopacity="0"
     inkscape:pageshadow="2"
     inkscape:window-width="1301"
     inkscape:window-height="744"
     id="namedview4810"
     showgrid="false"
     inkscape:zoom="0.30341309"
     inkscape:cx="740.22858"
     inkscape:cy="236.8242"
     inkscape:window-x="65"
     inkscape:window-y="24"
     inkscape:window-maximized="1"
     inkscape:current-layer="svg2"
     fit-margin-top="0"
     fit-margin-left="0"
     fit-margin-right="0"
     fit-margin-bottom="0" />
  <path
     style="fill:#4f66c5;fill-opacity:1"
     d="M 397.48043,9.3655144e-4 C 387.69919,0.10206655 378.03464,0.73633655 368.63668,1.9696866 c -23.85746,3.13362 -47.47294,4.73995 -71.0625,10.2499994 -50.2428,11.71905 -97.44523,34.591092 -138.625,65.53125 -41.87872,31.452724 -77.490982,71.262984 -104.750002,115.937504 -66.64482,109.24579 -71.61363,259.1933 -16.09375,373.9375 33.38649,69.0096 89.063552,128.82611 154.625002,168.375 61.93256,37.36214 133.55536,54.44178 205.28125,54.125 0.0835,-3.7e-4 0.1665,4.2e-4 0.25,0 71.72589,0.31678 143.34869,-16.76286 205.28125,-54.125 65.56145,-39.54889 121.23851,-99.3654 154.625,-168.375 C 813.68781,452.88174 808.719,302.93423 742.07418,193.68844 714.81516,149.01392 679.2029,109.20366 637.32418,77.750936 596.14441,46.810778 548.94198,23.938736 498.69918,12.219686 475.10962,6.7096366 451.49414,5.1033066 427.63668,1.9696866 418.23872,0.73633655 408.57417,0.10206655 398.79293,9.3655144e-4 c -0.17675,-0.0018 -0.35406,-5.74e-4 -0.53125,0 -0.0832,6.3999856e-4 -0.16662,2.6999856e-4 -0.25,0 -0.17719,-5.74e-4 -0.3545,-0.0018 -0.53125,0 z M 179.48043,534.28219 c 15.52552,0.27022 24.15312,12.11281 34.9375,22.90625 16.99,17.02 34.39,33.5275 55,46.1875 39.37038,24.18033 83.81514,36.73467 128.59375,36.78125 0.0837,9e-5 0.1663,0 0.25,0 44.77861,-0.0466 89.22337,-12.60092 128.59375,-36.78125 20.61,-12.66 38.01,-29.1675 55,-46.1875 11.9,-11.91 21.19,-25.08375 40,-22.59375 21.3,2.83 35.79375,18.89375 24.09375,40.59375 -13.87,25.72 -40.28375,48.76375 -63.09375,66.34375 -53.78339,41.44919 -118.4616,58.37507 -184.59375,58.46875 -0.0836,-6e-5 -0.1664,1.2e-4 -0.25,0 -66.13215,-0.0937 -130.81036,-17.01956 -184.59375,-58.46875 -22.81,-17.58 -49.22375,-40.62375 -63.09375,-66.34375 -11.7,-21.7 2.79375,-37.76375 24.09375,-40.59375 1.76344,-0.23344 3.45641,-0.34045 5.0625,-0.3125 z"
     id="path594"
     inkscape:connector-curvature="0" />
  <metadata
     id="metadata4808">
    <rdf:RDF>
      <cc:Work>
        <dc:format>image/svg+xml</dc:format>
        <dc:type
           rdf:resource="http://purl.org/dc/dcmitype/StillImage" />
        <cc:license
           rdf:resource="http://creativecommons.org/licenses/publicdomain/" />
        <dc:publisher>
          <cc:Agent
             rdf:about="http://openclipart.org/">
            <dc:title>Openclipart</dc:title>
          </cc:Agent>
        </dc:publisher>
        <dc:title></dc:title>
      </cc:Work>
      <cc:License
         rdf:about="http://creativecommons.org/licenses/publicdomain/">
        <cc:permits
           rdf:resource="http://creativecommons.org/ns#Reproduction" />
        <cc:permits
           rdf:resource="http://creativecommons.org/ns#Distribution" />
        <cc:permits
           rdf:resource="http://creativecommons.org/ns#DerivativeWorks" />
      </cc:License>
    </rdf:RDF>
  </metadata>
</svg>
