<?xml version="1.0" encoding="UTF-8" standalone="no"?>
<svg
   xmlns:dc="http://purl.org/dc/elements/1.1/"
   xmlns:cc="http://creativecommons.org/ns#"
   xmlns:rdf="http://www.w3.org/1999/02/22-rdf-syntax-ns#"
   xmlns:svg="http://www.w3.org/2000/svg"
   xmlns="http://www.w3.org/2000/svg"
   xmlns:sodipodi="http://sodipodi.sourceforge.net/DTD/sodipodi-0.dtd"
   xmlns:inkscape="http://www.inkscape.org/namespaces/inkscape"
   viewBox="0 0 1199 1100"
   id="svg2"
   version="1.1"
   inkscape:version="0.48.3.1 r9886"
   width="100%"
   height="100%"
   sodipodi:docname="profile.svg">
  <defs
     id="defs4812" />
  <sodipodi:namedview
     pagecolor="#ffffff"
     bordercolor="#666666"
     borderopacity="1"
     objecttolerance="10"
     gridtolerance="10"
     guidetolerance="10"
     inkscape:pageopacity="0"
     inkscape:pageshadow="2"
     inkscape:window-width="1301"
     inkscape:window-height="744"
     id="namedview4810"
     showgrid="false"
     inkscape:zoom="0.30341309"
     inkscape:cx="1231.8382"
     inkscape:cy="496.38235"
     inkscape:window-x="65"
     inkscape:window-y="24"
     inkscape:window-maximized="1"
     inkscape:current-layer="svg2" />
  <path
     style="fill:#37b2a4;fill-opacity:1"
     d="m 430.97483,50.316502 c -9.78124,0.10113 -19.44579,0.7354 -28.84375,1.96875 -23.85746,3.13362 -47.47294,4.73995 -71.0625,10.25 -50.2428,11.71905 -97.44523,34.59109 -138.625,65.531248 -41.87872,31.45272 -77.49098,71.26298 -104.750001,115.9375 -66.64482,109.24579 -71.61363,259.1933 -16.09375,373.9375 33.386491,69.0096 89.063551,128.82611 154.625001,168.375 62.00466,37.40563 133.72163,54.4827 205.53125,54.125 l 0,-90.125 c -66.21941,-0.0512 -130.99237,-16.96716 -184.84375,-58.46875 -22.81,-17.58 -49.22375,-40.62375 -63.09375,-66.34375 -11.7,-21.7 2.79375,-37.76375 24.09375,-40.59375 18.81,-2.49 28.1,10.68375 40,22.59375 16.99,17.02 34.39,33.5275 55,46.1875 39.44397,24.22552 83.98021,36.78143 128.84375,36.78125 l 0,-640.156248 c -0.2601,0.002 -0.52133,-0.0027 -0.78125,0 z"
     id="path594"
     inkscape:connector-curvature="0"
     inkscape:export-filename="/home/caiosba/Presidência/confjuvapp/www/img/profile.png"
     inkscape:export-xdpi="45.529999"
     inkscape:export-ydpi="45.529999" />
  <metadata
     id="metadata4808">
    <rdf:RDF>
      <cc:Work>
        <dc:format>image/svg+xml</dc:format>
        <dc:type
           rdf:resource="http://purl.org/dc/dcmitype/StillImage" />
        <cc:license
           rdf:resource="http://creativecommons.org/licenses/publicdomain/" />
        <dc:publisher>
          <cc:Agent
             rdf:about="http://openclipart.org/">
            <dc:title>Openclipart</dc:title>
          </cc:Agent>
        </dc:publisher>
        <dc:title></dc:title>
      </cc:Work>
      <cc:License
         rdf:about="http://creativecommons.org/licenses/publicdomain/">
        <cc:permits
           rdf:resource="http://creativecommons.org/ns#Reproduction" />
        <cc:permits
           rdf:resource="http://creativecommons.org/ns#Distribution" />
        <cc:permits
           rdf:resource="http://creativecommons.org/ns#DerivativeWorks" />
      </cc:License>
    </rdf:RDF>
  </metadata>
</svg>
