<svg xmlns="http://www.w3.org/2000/svg" width="1920" height="300"><path d="M-18,560L-175,563L322,576Z" fill="#8190ab" stroke="#8190ab" stroke-width="1.51"/><path d="M-135,-238L-54,-241L534,-265Z" fill="#eee9f3" stroke="#eee9f3" stroke-width="1.51"/><path d="M534,-265L838,-243L1055,-243Z" fill="#c4d1e6" stroke="#c4d1e6" stroke-width="1.51"/><path d="M833,548L710,572L1322,536Z" fill="#43769d" stroke="#43769d" stroke-width="1.51"/><path d="M1322,536L710,572L1618,563Z" fill="#256b96" stroke="#256b96" stroke-width="1.51"/><path d="M534,-265L1055,-243L1670,-281Z" fill="#afc7e1" stroke="#afc7e1" stroke-width="1.51"/><path d="M1055,-243L1328,-228L1670,-281Z" fill="#9ebad9" stroke="#9ebad9" stroke-width="1.51"/><path d="M1745,565L1618,563L1925,579Z" fill="#03517f" stroke="#03517f" stroke-width="1.51"/><path d="M1618,563L710,572L1925,579Z" fill="#125f8d" stroke="#125f8d" stroke-width="1.51"/><path d="M1670,-281L1801,-265L1985,-250Z" fill="#91a4c4" stroke="#91a4c4" stroke-width="1.51"/><path d="M1889,376L1925,579L2113,352Z" fill="#04588a" stroke="#04588a" stroke-width="1.51"/><path d="M2103,202L1951,274L2113,352Z" fill="#1c6793" stroke="#1c6793" stroke-width="1.51"/><path d="M2083,-113L1945,-122L2117,62Z" fill="#7086a6" stroke="#7086a6" stroke-width="1.51"/><path d="M1940,110L2103,202L2117,62Z" fill="#49769c" stroke="#49769c" stroke-width="1.51"/><path d="M2103,202L2113,352L2117,62Z" fill="#316b92" stroke="#316b92" stroke-width="1.51"/><path d="M2113,352L1925,579L2137,562Z" fill="#044d78" stroke="#044d78" stroke-width="1.51"/><path d="M2117,62L2113,352L2137,562Z" fill="#115c89" stroke="#115c89" stroke-width="1.51"/><path d="M1945,-122L1940,110L2117,62Z" fill="#6383a7" stroke="#6383a7" stroke-width="1.51"/><path d="M1951,274L1889,376L2113,352Z" fill="#116396" stroke="#116396" stroke-width="1.51"/><path d="M1940,110L1951,274L2103,202Z" fill="#37739e" stroke="#37739e" stroke-width="1.51"/><path d="M2051,-226L1945,-122L2083,-113Z" fill="#7e90ad" stroke="#7e90ad" stroke-width="1.51"/><path d="M1985,-250L1945,-122L2051,-226Z" fill="#8496b2" stroke="#8496b2" stroke-width="1.51"/><path d="M529,561L322,576L710,572Z" fill="#6780a1" stroke="#6780a1" stroke-width="1.51"/><path d="M1197,513L833,548L1322,536Z" fill="#33739e" stroke="#33739e" stroke-width="1.51"/><path d="M1802,-78L1940,110L1945,-122Z" fill="#708db3" stroke="#708db3" stroke-width="1.51"/><path d="M1940,110L1810,215L1951,274Z" fill="#3878a6" stroke="#3878a6" stroke-width="1.51"/><path d="M1801,-265L1945,-122L1985,-250Z" fill="#899cbb" stroke="#899cbb" stroke-width="1.51"/><path d="M1889,376L1745,565L1925,579Z" fill="#045789" stroke="#045789" stroke-width="1.51"/><path d="M1802,-78L1750,83L1940,110Z" fill="#648bb5" stroke="#648bb5" stroke-width="1.51"/><path d="M1801,-265L1802,-78L1945,-122Z" fill="#859bbe" stroke="#859bbe" stroke-width="1.51"/><path d="M1810,215L1889,376L1951,274Z" fill="#1d6fa2" stroke="#1d6fa2" stroke-width="1.51"/><path d="M1730,408L1745,565L1889,376Z" fill="#046097" stroke="#046097" stroke-width="1.51"/><path d="M1750,83L1810,215L1940,110Z" fill="#4c82b0" stroke="#4c82b0" stroke-width="1.51"/><path d="M1810,215L1730,408L1889,376Z" fill="#136da4" stroke="#136da4" stroke-width="1.51"/><path d="M1690,-31L1750,83L1802,-78Z" fill="#7092bd" stroke="#7092bd" stroke-width="1.51"/><path d="M1801,-265L1670,-281L1802,-78Z" fill="#8da3c6" stroke="#8da3c6" stroke-width="1.51"/><path d="M1670,-281L1690,-31L1802,-78Z" fill="#859ec4" stroke="#859ec4" stroke-width="1.51"/><path d="M1676,375L1730,408L1810,215Z" fill="#146fa8" stroke="#146fa8" stroke-width="1.51"/><path d="M1652,189L1676,375L1810,215Z" fill="#247baf" stroke="#247baf" stroke-width="1.51"/><path d="M1750,83L1652,189L1810,215Z" fill="#4684b4" stroke="#4684b4" stroke-width="1.51"/><path d="M1428,512L1322,536L1618,563Z" fill="#116295" stroke="#116295" stroke-width="1.51"/><path d="M1670,-281L1537,-123L1690,-31Z" fill="#89a3ca" stroke="#89a3ca" stroke-width="1.51"/><path d="M1676,375L1618,563L1730,408Z" fill="#04649d" stroke="#04649d" stroke-width="1.51"/><path d="M1730,408L1618,563L1745,565Z" fill="#055c90" stroke="#055c90" stroke-width="1.51"/><path d="M1690,-31L1622,63L1750,83Z" fill="#6891be" stroke="#6891be" stroke-width="1.51"/><path d="M1622,63L1652,189L1750,83Z" fill="#558aba" stroke="#558aba" stroke-width="1.51"/><path d="M1519,-174L1537,-123L1670,-281Z" fill="#91a9d0" stroke="#91a9d0" stroke-width="1.51"/><path d="M1328,-228L1519,-174L1670,-281Z" fill="#96afd4" stroke="#96afd4" stroke-width="1.51"/><path d="M1437,361L1618,563L1676,375Z" fill="#056aa6" stroke="#056aa6" stroke-width="1.51"/><path d="M1652,189L1472,250L1676,375Z" fill="#237db5" stroke="#237db5" stroke-width="1.51"/><path d="M1537,-123L1622,63L1690,-31Z" fill="#7899c5" stroke="#7899c5" stroke-width="1.51"/><path d="M1437,361L1428,512L1618,563Z" fill="#0e69a2" stroke="#0e69a2" stroke-width="1.51"/><path d="M1472,250L1437,361L1676,375Z" fill="#1978b5" stroke="#1978b5" stroke-width="1.51"/><path d="M1622,63L1510,125L1652,189Z" fill="#538cbf" stroke="#538cbf" stroke-width="1.51"/><path d="M1510,125L1472,250L1652,189Z" fill="#4289be" stroke="#4289be" stroke-width="1.51"/><path d="M1537,-123L1510,125L1622,63Z" fill="#6e97c7" stroke="#6e97c7" stroke-width="1.51"/><path d="M-54,-241L253,-222L534,-265Z" fill="#e8e4f1" stroke="#e8e4f1" stroke-width="1.51"/><path d="M1519,-174L1293,-93L1537,-123Z" fill="#8eabd1" stroke="#8eabd1" stroke-width="1.51"/><path d="M1293,-93L1351,32L1537,-123Z" fill="#85a8cf" stroke="#85a8cf" stroke-width="1.51"/><path d="M1351,32L1510,125L1537,-123Z" fill="#739dca" stroke="#739dca" stroke-width="1.51"/><path d="M1377,210L1472,250L1510,125Z" fill="#438dc0" stroke="#438dc0" stroke-width="1.51"/><path d="M1328,-228L1293,-93L1519,-174Z" fill="#94b2d5" stroke="#94b2d5" stroke-width="1.51"/><path d="M1011,493L833,548L1197,513Z" fill="#4079a4" stroke="#4079a4" stroke-width="1.51"/><path d="M1351,32L1377,210L1510,125Z" fill="#5a97c5" stroke="#5a97c5" stroke-width="1.51"/><path d="M1298,402L1428,512L1437,361Z" fill="#1974ac" stroke="#1974ac" stroke-width="1.51"/><path d="M1377,210L1437,361L1472,250Z" fill="#2b85bb" stroke="#2b85bb" stroke-width="1.51"/><path d="M1298,402L1322,536L1428,512Z" fill="#1b70a4" stroke="#1b70a4" stroke-width="1.51"/><path d="M1377,210L1298,402L1437,361Z" fill="#2681b9" stroke="#2681b9" stroke-width="1.51"/><path d="M1055,-243L1186,-174L1328,-228Z" fill="#a4c0dc" stroke="#a4c0dc" stroke-width="1.51"/><path d="M1169,272L1298,402L1377,210Z" fill="#318abd" stroke="#318abd" stroke-width="1.51"/><path d="M1351,32L1222,53L1377,210Z" fill="#649ec9" stroke="#649ec9" stroke-width="1.51"/><path d="M1222,53L1169,272L1377,210Z" fill="#5199c6" stroke="#5199c6" stroke-width="1.51"/><path d="M1293,-93L1228,-46L1351,32Z" fill="#84abd0" stroke="#84abd0" stroke-width="1.51"/><path d="M1228,-46L1222,53L1351,32Z" fill="#7aa8cf" stroke="#7aa8cf" stroke-width="1.51"/><path d="M1169,272L1180,390L1298,402Z" fill="#2f85bb" stroke="#2f85bb" stroke-width="1.51"/><path d="M1298,402L1197,513L1322,536Z" fill="#2174a6" stroke="#2174a6" stroke-width="1.51"/><path d="M1186,-174L1293,-93L1328,-228Z" fill="#98b8d8" stroke="#98b8d8" stroke-width="1.51"/><path d="M1077,130L1169,272L1222,53Z" fill="#62a1ca" stroke="#62a1ca" stroke-width="1.51"/><path d="M1180,390L1197,513L1298,402Z" fill="#297baf" stroke="#297baf" stroke-width="1.51"/><path d="M1186,-174L1228,-46L1293,-93Z" fill="#93b4d5" stroke="#93b4d5" stroke-width="1.51"/><path d="M1057,-128L1077,130L1222,53Z" fill="#85aed2" stroke="#85aed2" stroke-width="1.51"/><path d="M1057,-128L1222,53L1228,-46Z" fill="#8db1d4" stroke="#8db1d4" stroke-width="1.51"/><path d="M1186,-174L1057,-128L1228,-46Z" fill="#9ab9d8" stroke="#9ab9d8" stroke-width="1.51"/><path d="M1180,390L1011,493L1197,513Z" fill="#357cad" stroke="#357cad" stroke-width="1.51"/><path d="M1077,130L1018,255L1169,272Z" fill="#589cc7" stroke="#589cc7" stroke-width="1.51"/><path d="M1169,272L1005,377L1180,390Z" fill="#3e8abe" stroke="#3e8abe" stroke-width="1.51"/><path d="M1005,377L1011,493L1180,390Z" fill="#3f83b6" stroke="#3f83b6" stroke-width="1.51"/><path d="M1055,-243L1057,-128L1186,-174Z" fill="#a8c1dd" stroke="#a8c1dd" stroke-width="1.51"/><path d="M1018,255L1005,377L1169,272Z" fill="#4992c2" stroke="#4992c2" stroke-width="1.51"/><path d="M847,-100L854,36L1057,-128Z" fill="#a5bddb" stroke="#a5bddb" stroke-width="1.51"/><path d="M882,217L1018,255L1077,130Z" fill="#65a2ca" stroke="#65a2ca" stroke-width="1.51"/><path d="M854,36L882,217L1077,130Z" fill="#7cabd1" stroke="#7cabd1" stroke-width="1.51"/><path d="M1057,-128L854,36L1077,130Z" fill="#90b3d5" stroke="#90b3d5" stroke-width="1.51"/><path d="M1055,-243L838,-243L1057,-128Z" fill="#b2c8e1" stroke="#b2c8e1" stroke-width="1.51"/><path d="M838,-243L847,-100L1057,-128Z" fill="#b2c6e0" stroke="#b2c6e0" stroke-width="1.51"/><path d="M1005,377L928,353L1011,493Z" fill="#4888ba" stroke="#4888ba" stroke-width="1.51"/><path d="M928,353L1005,377L1018,255Z" fill="#4f92c3" stroke="#4f92c3" stroke-width="1.51"/><path d="M882,217L928,353L1018,255Z" fill="#599bc7" stroke="#599bc7" stroke-width="1.51"/><path d="M928,353L833,548L1011,493Z" fill="#4c83b2" stroke="#4c83b2" stroke-width="1.51"/><path d="M768,214L785,409L882,217Z" fill="#669fca" stroke="#669fca" stroke-width="1.51"/><path d="M882,217L785,409L928,353Z" fill="#5c96c5" stroke="#5c96c5" stroke-width="1.51"/><path d="M785,409L833,548L928,353Z" fill="#5589b8" stroke="#5589b8" stroke-width="1.51"/><path d="M-54,-241L143,-214L253,-222Z" fill="#ece7f2" stroke="#ece7f2" stroke-width="1.51"/><path d="M838,-243L739,-179L847,-100Z" fill="#bccbe3" stroke="#bccbe3" stroke-width="1.51"/><path d="M725,110L768,214L854,36Z" fill="#8ab1d4" stroke="#8ab1d4" stroke-width="1.51"/><path d="M854,36L768,214L882,217Z" fill="#7eacd1" stroke="#7eacd1" stroke-width="1.51"/><path d="M534,-265L739,-179L838,-243Z" fill="#c9d3e7" stroke="#c9d3e7" stroke-width="1.51"/><path d="M847,-100L707,-103L854,36Z" fill="#adc0dd" stroke="#adc0dd" stroke-width="1.51"/><path d="M707,-103L725,110L854,36Z" fill="#a3bbda" stroke="#a3bbda" stroke-width="1.51"/><path d="M785,409L710,572L833,548Z" fill="#5782ab" stroke="#5782ab" stroke-width="1.51"/><path d="M739,-179L707,-103L847,-100Z" fill="#bac8e2" stroke="#bac8e2" stroke-width="1.51"/><path d="M707,-103L591,-21L725,110Z" fill="#adc0dc" stroke="#adc0dc" stroke-width="1.51"/><path d="M535,272L578,410L768,214Z" fill="#75a2cc" stroke="#75a2cc" stroke-width="1.51"/><path d="M768,214L578,410L785,409Z" fill="#6999c7" stroke="#6999c7" stroke-width="1.51"/><path d="M578,410L710,572L785,409Z" fill="#628bb7" stroke="#628bb7" stroke-width="1.51"/><path d="M725,110L535,272L768,214Z" fill="#82add2" stroke="#82add2" stroke-width="1.51"/><path d="M591,-21L554,34L725,110Z" fill="#a8bddc" stroke="#a8bddc" stroke-width="1.51"/><path d="M534,-265L707,-103L739,-179Z" fill="#c9d1e6" stroke="#c9d1e6" stroke-width="1.51"/><path d="M578,410L529,561L710,572Z" fill="#6687ae" stroke="#6687ae" stroke-width="1.51"/><path d="M554,34L535,272L725,110Z" fill="#94b6d7" stroke="#94b6d7" stroke-width="1.51"/><path d="M534,-265L591,-21L707,-103Z" fill="#c6cee5" stroke="#c6cee5" stroke-width="1.51"/><path d="M395,543L322,576L529,561Z" fill="#6f85a5" stroke="#6f85a5" stroke-width="1.51"/><path d="M407,-187L400,-132L534,-265Z" fill="#d9d9eb" stroke="#d9d9eb" stroke-width="1.51"/><path d="M394,196L535,272L554,34Z" fill="#97b6d7" stroke="#97b6d7" stroke-width="1.51"/><path d="M396,44L394,196L554,34Z" fill="#aabfdc" stroke="#aabfdc" stroke-width="1.51"/><path d="M535,272L454,373L578,410Z" fill="#789dca" stroke="#789dca" stroke-width="1.51"/><path d="M454,373L529,561L578,410Z" fill="#7192bc" stroke="#7192bc" stroke-width="1.51"/><path d="M400,-132L554,34L591,-21Z" fill="#bfc9e1" stroke="#bfc9e1" stroke-width="1.51"/><path d="M534,-265L400,-132L591,-21Z" fill="#ced2e7" stroke="#ced2e7" stroke-width="1.51"/><path d="M400,-132L396,44L554,34Z" fill="#c0c9e1" stroke="#c0c9e1" stroke-width="1.51"/><path d="M454,373L395,543L529,561Z" fill="#738fb6" stroke="#738fb6" stroke-width="1.51"/><path d="M253,-222L407,-187L534,-265Z" fill="#dedded" stroke="#dedded" stroke-width="1.51"/><path d="M394,196L454,373L535,272Z" fill="#83aad0" stroke="#83aad0" stroke-width="1.51"/><path d="M301,-65L396,44L400,-132Z" fill="#cbcfe5" stroke="#cbcfe5" stroke-width="1.51"/><path d="M394,196L255,259L454,373Z" fill="#8badd2" stroke="#8badd2" stroke-width="1.51"/><path d="M255,259L242,374L454,373Z" fill="#88a6cf" stroke="#88a6cf" stroke-width="1.51"/><path d="M242,374L395,543L454,373Z" fill="#7e99c2" stroke="#7e99c2" stroke-width="1.51"/><path d="M150,508L-18,560L322,576Z" fill="#7e90ad" stroke="#7e90ad" stroke-width="1.51"/><path d="M242,374L322,576L395,543Z" fill="#7c93b7" stroke="#7c93b7" stroke-width="1.51"/><path d="M287,40L394,196L396,44Z" fill="#b0c2de" stroke="#b0c2de" stroke-width="1.51"/><path d="M301,-65L287,40L396,44Z" fill="#c3cbe3" stroke="#c3cbe3" stroke-width="1.51"/><path d="M253,-222L400,-132L407,-187Z" fill="#dddbec" stroke="#dddbec" stroke-width="1.51"/><path d="M287,40L255,259L394,196Z" fill="#a3bddb" stroke="#a3bddb" stroke-width="1.51"/><path d="M253,-222L301,-65L400,-132Z" fill="#dad9eb" stroke="#dad9eb" stroke-width="1.51"/><path d="M149,224L255,259L287,40Z" fill="#a6bfdc" stroke="#a6bfdc" stroke-width="1.51"/><path d="M253,-222L160,-121L301,-65Z" fill="#dddbec" stroke="#dddbec" stroke-width="1.51"/><path d="M242,374L150,508L322,576Z" fill="#8097bb" stroke="#8097bb" stroke-width="1.51"/><path d="M160,-121L108,29L287,40Z" fill="#ced2e6" stroke="#ced2e6" stroke-width="1.51"/><path d="M108,29L149,224L287,40Z" fill="#b8c8e1" stroke="#b8c8e1" stroke-width="1.51"/><path d="M160,-121L287,40L301,-65Z" fill="#d0d2e7" stroke="#d0d2e7" stroke-width="1.51"/><path d="M154,362L150,508L242,374Z" fill="#88a1c8" stroke="#88a1c8" stroke-width="1.51"/><path d="M143,-214L160,-121L253,-222Z" fill="#e6e2ef" stroke="#e6e2ef" stroke-width="1.51"/><path d="M154,362L242,374L255,259Z" fill="#8daad1" stroke="#8daad1" stroke-width="1.51"/><path d="M149,224L154,362L255,259Z" fill="#94b3d5" stroke="#94b3d5" stroke-width="1.51"/><path d="M-51,55L-55,215L108,29Z" fill="#bfcee4" stroke="#bfcee4" stroke-width="1.51"/><path d="M108,29L-55,215L149,224Z" fill="#b1c7e0" stroke="#b1c7e0" stroke-width="1.51"/><path d="M-15,360L150,508L154,362Z" fill="#8da4cb" stroke="#8da4cb" stroke-width="1.51"/><path d="M149,224L-15,360L154,362Z" fill="#95b1d5" stroke="#95b1d5" stroke-width="1.51"/><path d="M143,-214L-16,-83L160,-121Z" fill="#e4e1ef" stroke="#e4e1ef" stroke-width="1.51"/><path d="M-16,-83L108,29L160,-121Z" fill="#dad9ea" stroke="#dad9ea" stroke-width="1.51"/><path d="M-55,215L-15,360L149,224Z" fill="#9cbbd9" stroke="#9cbbd9" stroke-width="1.51"/><path d="M-15,360L-18,560L150,508Z" fill="#8a9fc1" stroke="#8a9fc1" stroke-width="1.51"/><path d="M-54,-241L-16,-83L143,-214Z" fill="#ece7f2" stroke="#ece7f2" stroke-width="1.51"/><path d="M-16,-83L-51,55L108,29Z" fill="#d2d6e9" stroke="#d2d6e9" stroke-width="1.51"/><path d="M-210,220L-198,400L-55,215Z" fill="#a2bddb" stroke="#a2bddb" stroke-width="1.51"/><path d="M-126,105L-55,215L-51,55Z" fill="#bccde4" stroke="#bccde4" stroke-width="1.51"/><path d="M-198,400L-175,563L-18,560Z" fill="#8d9fbc" stroke="#8d9fbc" stroke-width="1.51"/><path d="M-54,-241L-135,-238L-16,-83Z" fill="#f0eaf4" stroke="#f0eaf4" stroke-width="1.51"/><path d="M-135,-238L-162,-76L-16,-83Z" fill="#eae6f1" stroke="#eae6f1" stroke-width="1.51"/><path d="M-162,-76L-51,55L-16,-83Z" fill="#dbdcec" stroke="#dbdcec" stroke-width="1.51"/><path d="M-198,400L-18,560L-15,360Z" fill="#91a5c9" stroke="#91a5c9" stroke-width="1.51"/><path d="M-55,215L-198,400L-15,360Z" fill="#9ab5d7" stroke="#9ab5d7" stroke-width="1.51"/><path d="M-126,105L-210,220L-55,215Z" fill="#b3c9e2" stroke="#b3c9e2" stroke-width="1.51"/><path d="M-162,-76L-126,105L-51,55Z" fill="#d1d7ea" stroke="#d1d7ea" stroke-width="1.51"/><path d="M-162,-76L-210,220L-126,105Z" fill="#c7d4e7" stroke="#c7d4e7" stroke-width="1.51"/></svg>